HIERARCHY
ROOT hip
{
	OFFSET 0.000000 0.000000 0.000000 
	CHANNELS 6 Xposition Yposition Zposition Zrotation Xrotation Yrotation
	JOINT abdomen
	{
		OFFSET 0.000000 3.402643 0.000000 
		CHANNELS 3 Zrotation Xrotation Yrotation
		JOINT chest
		{
			OFFSET 0.000000 8.438565 -0.680529 
			CHANNELS 3 Zrotation Xrotation Yrotation
			JOINT neck
			{
				OFFSET 0.000000 10.207942 -0.272212 
				CHANNELS 3 Zrotation Xrotation Yrotation
				JOINT head
				{
					OFFSET 0.000000 3.130431 0.000000 
					CHANNELS 3 Zrotation Xrotation Yrotation
					End Site
					{
						OFFSET 0.000000 3.130435 0.000000 
					}
				}
			}
			JOINT lCollar
			{
				OFFSET 3.470700 6.669187 -0.816635 
				CHANNELS 3 Zrotation Xrotation Yrotation
				JOINT lShldr
				{
					OFFSET 3.198488 0.000000 0.000000 
					CHANNELS 3 Zrotation Xrotation Yrotation
					JOINT lForeArm
					{
						OFFSET 10.139888 0.000000 0.000000 
						CHANNELS 3 Zrotation Xrotation Yrotation
						JOINT lHand
						{
							OFFSET 8.370511 0.000000 0.000000 
							CHANNELS 3 Zrotation Xrotation Yrotation
							End Site
							{
								OFFSET 4.083176 0.000000 0.000000 
							}
						}
					}
				}
			}
			JOINT rCollar
			{
				OFFSET -3.470700 6.669187 -0.816635 
				CHANNELS 3 Zrotation Xrotation Yrotation
				JOINT rShldr
				{
					OFFSET -3.198488 0.000000 0.000000 
					CHANNELS 3 Zrotation Xrotation Yrotation
					JOINT rForeArm
					{
						OFFSET -10.139888 0.000000 0.000000 
						CHANNELS 3 Zrotation Xrotation Yrotation
						JOINT rHand
						{
							OFFSET -8.370511 0.000000 0.000000 
							CHANNELS 3 Zrotation Xrotation Yrotation
							End Site
							{
								OFFSET -4.083176 0.000000 0.000000 
							}
						}
					}
				}
			}
		}
	}
	JOINT lThigh
	{
		OFFSET 5.308129 -1.633274 1.361059 
		CHANNELS 3 Zrotation Xrotation Yrotation
		JOINT lShin
		{
			OFFSET -2.041588 -20.007561 0.000000 
			CHANNELS 3 Zrotation Xrotation Yrotation
			JOINT lFoot
			{
				OFFSET 0.000000 -19.190928 -1.224953 
				CHANNELS 3 Zrotation Xrotation Yrotation
				End Site
				{
					OFFSET 0.000000 -2.449906 4.627600 
				}
			}
		}
	}
	JOINT rThigh
	{
		OFFSET -5.308129 -1.633274 1.361059 
		CHANNELS 3 Zrotation Xrotation Yrotation
		JOINT rShin
		{
			OFFSET 2.041588 -20.007561 0.000000 
			CHANNELS 3 Zrotation Xrotation Yrotation
			JOINT rFoot
			{
				OFFSET 0.000000 -19.190928 -1.224953 
				CHANNELS 3 Zrotation Xrotation Yrotation
				End Site
				{
					OFFSET 0.000000 -2.449906 4.627600 
				}
			}
		}
	}
}
MOTION
Frames: 8
Frame Time: 0.033333
-0.308433 43.613113 4.686782 -0.000000 -5.000010 -0.000000 -0.255492 -6.386658 0.430521 -1.365308 -11.500724 -6.268359 -0.000000 -0.000003 -0.000000 -0.000000 -4.052733 -0.000000 11.238917 -3.904469 -10.758816 -48.621151 -23.848948 -35.576611 -0.250685 43.302334 -134.775040 102.587662 27.991955 -36.838749 -15.173517 6.375662 -9.254212 40.421051 -3.246741 64.587418 55.076077 39.386501 92.809242 -104.098419 1.925359 79.514244 5.104290 -11.782368 0.848746 -6.284291 50.326088 0.505060 0.451441 -33.965504 1.254452 -5.085835 -11.757355 -0.637756 5.604238 50.333984 -0.688339 -0.663658 -34.107815 -2.358725 
-0.314895 43.590244 4.700577 -0.000000 -5.107432 -0.000000 -0.610031 -7.011326 -1.695667 -1.406602 -11.783657 -6.537567 -0.000000 -0.000003 -0.000000 -0.000000 -5.703126 -0.302734 12.078923 -4.184838 -11.136553 -48.297276 -24.776438 -36.159119 -1.098296 43.338120 -134.255280 102.706535 28.279102 -35.944191 -15.875793 6.637573 -9.224090 39.956177 -3.631732 64.409134 56.553413 39.418781 92.452942 -105.406120 1.973240 79.331505 5.165133 -11.764790 0.876593 -6.370840 50.851582 0.587259 0.506218 -34.366955 1.200803 -5.125278 -11.746217 -0.691816 5.690109 50.916901 -0.728367 -0.668787 -34.600990 -2.276821 
-0.323079 43.567009 4.716825 -0.000000 -5.244151 -0.000000 -1.034899 -7.772187 -4.261237 -1.458374 -12.134856 -6.859364 -0.000000 -0.000003 -0.000000 0.000000 -7.431643 -0.839844 13.114697 -4.565242 -11.595180 -47.921749 -25.921623 -36.924007 -2.171063 43.400715 -133.582001 102.917625 28.610189 -34.821106 -16.767038 6.965940 -9.174557 39.361897 -4.110523 64.199715 58.450089 39.470909 91.953407 -107.105179 2.030582 79.115776 5.226808 -11.888891 0.881780 -6.464867 51.413483 0.607097 0.549651 -34.726818 1.250890 -5.147291 -11.890602 -1.201165 5.768859 51.518768 -0.456672 -1.191858 -34.851143 -2.345847 
-0.331399 43.539722 4.734128 -0.000000 -5.380869 -0.000000 -1.491270 -8.571362 -6.970357 -1.520398 -12.495738 -7.194272 -0.000000 -0.000003 -0.000000 0.000000 -6.650391 -1.279297 14.175703 -4.960034 -12.062989 -47.568924 -27.078981 -37.732944 -3.247259 43.427448 -132.932861 103.082245 28.952856 -33.651501 -17.668730 7.294888 -9.122421 38.756966 -4.618954 63.992104 60.351822 39.536049 91.485931 -108.783241 2.091921 78.889854 5.266632 -11.813293 0.928648 -6.491212 51.706532 0.616489 0.555060 -34.864189 1.227532 -5.155800 -11.812253 -0.655594 5.936832 51.743130 -0.863444 -0.794004 -35.051933 -2.421111 
-0.338458 43.498856 4.752588 -0.000000 -5.498057 -0.000000 -1.949743 -9.350148 -9.701656 -1.572333 -12.807834 -7.516608 -0.000000 -0.000003 -0.000000 0.000000 -1.796874 -1.162109 15.129950 -5.344008 -12.462095 -47.283596 -28.076912 -38.458061 -4.234073 43.352753 -132.400742 103.013306 29.254171 -32.568253 -18.468344 7.586773 -9.064155 38.225166 -5.070667 63.811684 61.990387 39.553715 91.159340 -110.037659 2.204996 78.588867 5.293201 -11.750057 0.905628 -6.601420 52.002666 0.688739 0.473526 -35.150299 1.152152 -5.164688 -11.762967 -0.680578 6.000238 52.102505 -0.911027 -0.928069 -35.275009 -2.405071 
-0.342858 43.434929 4.772308 -0.000000 -5.566417 -0.000000 -2.400275 -10.069464 -12.333970 -1.613779 -13.022354 -7.776102 -0.000000 -0.000003 -0.000000 -0.000000 2.939452 -0.000000 15.836719 -5.641041 -12.719477 -47.073143 -28.745209 -38.949722 -5.022439 43.076870 -132.097214 102.550545 29.492487 -31.695745 -19.039646 7.768891 -8.988382 37.857445 -5.401807 63.663754 62.992573 39.478878 91.172287 -110.438065 2.394821 78.179405 5.344767 -11.855302 0.926614 -6.690300 52.487106 0.725400 0.666811 -35.399559 1.264815 -5.189092 -11.903205 -0.681949 6.101697 52.606140 -0.971349 -0.887659 -35.602448 -2.331230 
-0.343583 43.343269 4.792738 -0.000000 -5.566417 -0.000000 -2.832492 -10.700097 -14.745542 -1.654460 -13.109952 -7.943999 -0.000000 -0.000003 -0.000000 -0.000000 3.359375 2.314453 16.201324 -5.792278 -12.789809 -46.941742 -28.977333 -39.089314 -5.478338 42.557579 -132.160721 101.571106 29.620029 -31.140444 -19.264297 7.823141 -8.921128 37.717613 -5.553051 63.553112 63.148258 39.297237 91.596558 -109.643265 2.677792 77.643936 5.361104 -12.073222 0.945885 -6.771617 53.031830 0.771110 0.632552 -35.731861 1.279838 -5.211585 -12.076377 -1.224158 6.121315 53.184654 -0.701696 -1.377548 -35.982937 -2.360720 
-0.341141 43.238636 4.810717 -0.000000 -5.527353 -0.000000 -3.225704 -11.213135 -16.858915 -1.674314 -13.080543 -8.025519 -0.000000 -0.000003 -0.000000 -0.000000 0.839846 4.521484 16.248446 -5.819398 -12.702772 -46.902943 -28.827864 -38.926643 -5.647136 41.927643 -132.443726 100.300758 29.636074 -30.987164 -19.188086 7.767668 -8.869568 37.796112 -5.535581 63.479748 62.589981 39.038155 92.304031 -107.852089 2.974686 77.150261 5.359632 -11.976878 0.944027 -6.691434 52.830074 0.676578 0.656545 -35.653923 1.259752 -5.199843 -12.016747 -1.224818 6.068020 53.040199 -0.642619 -1.334547 -35.972950 -2.381349 
